<svg xmlns="http://www.w3.org/2000/svg" xmlns:xlink="http://www.w3.org/1999/xlink" viewBox="0 0 800 640"><defs><linearGradient id="Degradado_sin_nombre_25" x1="246.3" y1="448.97" x2="553.7" y2="191.03" gradientUnits="userSpaceOnUse"><stop offset="0" stop-color="#46b69c"/><stop offset="1" stop-color="#82368c"/></linearGradient></defs><title>banqui2</title><g id="Capa_2" data-name="Capa 2"><rect width="800" height="640" fill="#fff"/></g><g id="Capa_1" data-name="Capa 1"><rect x="245.21" y="165.21" width="309.59" height="309.59" rx="42.52" ry="42.52" fill="url(#Degradado_sin_nombre_25)"/><path d="M326.39,223.05H399q64.6,0,64.6,50.83,0,25.2-22.12,41.89,32.08,13.92,32.08,49.66,0,27.39-18.9,43.65a54.13,54.13,0,0,1-19.78,10.84Q424.39,423,406.52,423H395.24V371.59h10.11q8.93,0,12.6-2.27t3.66-8q0-9.67-14.94-9.67H395.24V298.34q16.4,0,16.41-11.28,0-10.4-14.79-10.4h-11V423H326.39Z" fill="#fff"/></g></svg>