<svg xmlns="http://www.w3.org/2000/svg" viewBox="0 0 800 640"><title>cipher</title><g id="Capa_2" data-name="Capa 2"><rect width="800" height="640" fill="#69beb5"/></g><g id="Capa_3" data-name="Capa 3"><path d="M143.57,284.2a40.1,40.1,0,0,1,5.8.44A19.49,19.49,0,0,1,154,285.8a2.58,2.58,0,0,1,1.32,1,3.42,3.42,0,0,1,.36,1.68v3.76q-2.32-.32-5.16-.6t-5.88-.28a16.31,16.31,0,0,0-6.08,1,8.37,8.37,0,0,0-4,3.4,17,17,0,0,0-2.16,6.44,66.31,66.31,0,0,0-.64,10.12,61.05,61.05,0,0,0,.8,11,18.15,18.15,0,0,0,2.36,6.6,8,8,0,0,0,4,3.24,16.49,16.49,0,0,0,5.68.88,37.06,37.06,0,0,0,5.84-.4,25.87,25.87,0,0,1,3.76-.4q2,0,2,1.92v3.92a37.51,37.51,0,0,1-5.56,1.56,36.71,36.71,0,0,1-7.48.68,23,23,0,0,1-9-1.6,14.3,14.3,0,0,1-6.2-5.08,23.71,23.71,0,0,1-3.56-8.88,64.91,64.91,0,0,1-1.12-13,66,66,0,0,1,1.12-13.12,23.35,23.35,0,0,1,3.56-8.88,14,14,0,0,1,6.28-5A24.9,24.9,0,0,1,143.57,284.2Z" transform="translate(-3.77 0)" fill="#1d2a3f"/><path d="M166.53,340.44q-1.92,0-1.92-1.84V285h6.48a2,2,0,0,1,1.4.48,1.76,1.76,0,0,1,.52,1.36V333.4h19.68q1.92,0,1.92,1.84v5.2Z" transform="translate(-3.77 0)" fill="#1d2a3f"/><path d="M238.44,312.76A59.76,59.76,0,0,1,237,327.24a21.77,21.77,0,0,1-4.08,8.72,13.44,13.44,0,0,1-6.36,4.28,27.45,27.45,0,0,1-8.2,1.16,27,27,0,0,1-8.16-1.16,13.46,13.46,0,0,1-6.32-4.28,21.77,21.77,0,0,1-4.08-8.72,73.52,73.52,0,0,1,0-29,21.78,21.78,0,0,1,4.08-8.72,13.48,13.48,0,0,1,6.32-4.28,27.08,27.08,0,0,1,8.16-1.16,27.48,27.48,0,0,1,8.2,1.16,13.46,13.46,0,0,1,6.36,4.28,21.78,21.78,0,0,1,4.08,8.72A59.78,59.78,0,0,1,238.44,312.76Zm-31.52,0a84.16,84.16,0,0,0,.52,10.28,19.77,19.77,0,0,0,1.84,6.64,7.94,7.94,0,0,0,3.52,3.6,14.85,14.85,0,0,0,11.12,0,8,8,0,0,0,3.52-3.6,20.37,20.37,0,0,0,1.88-6.64,94.63,94.63,0,0,0,0-20.56,20.38,20.38,0,0,0-1.88-6.64,7.94,7.94,0,0,0-3.52-3.6,14.86,14.86,0,0,0-11.12,0,7.94,7.94,0,0,0-3.52,3.6,19.78,19.78,0,0,0-1.84,6.64A84.19,84.19,0,0,0,206.92,312.76Z" transform="translate(-3.77 0)" fill="#1d2a3f"/><path d="M284.76,320.84q0,10.56-4.28,15.52t-14,5a28.85,28.85,0,0,1-8-1,13.25,13.25,0,0,1-5.84-3.36,15.15,15.15,0,0,1-3.6-6.28,33.09,33.09,0,0,1-1.24-9.84V285h6.48q1.92,0,1.92,1.84v34.88a28,28,0,0,0,.44,5.2,10.31,10.31,0,0,0,1.56,4,6.94,6.94,0,0,0,3.08,2.48,13,13,0,0,0,5.08.84,12.49,12.49,0,0,0,5-.84,7.09,7.09,0,0,0,3-2.44,10,10,0,0,0,1.56-3.92,29.09,29.09,0,0,0,.44-5.36V285h6.48a2,2,0,0,1,1.4.48,1.76,1.76,0,0,1,.52,1.36Z" transform="translate(-3.77 0)" fill="#1d2a3f"/><path d="M297.56,340.44q-1.92,0-1.92-1.84V286q1.84-.32,4-.6t4.32-.48q2.2-.2,4.28-.32t3.92-.12a29.42,29.42,0,0,1,9.76,1.44,14.74,14.74,0,0,1,6.72,4.72,21.26,21.26,0,0,1,3.88,8.64,70,70,0,0,1,0,26.24,22.31,22.31,0,0,1-3.8,8.68,14.42,14.42,0,0,1-6.6,4.8,28.06,28.06,0,0,1-9.64,1.48Zm14.24-49.28q-1.84,0-4.08.16t-3.68.4v42h7.6a21.14,21.14,0,0,0,6-.76,7.93,7.93,0,0,0,4.24-3.08,16.43,16.43,0,0,0,2.48-6.6,79.28,79.28,0,0,0,.12-21.6,16.63,16.63,0,0,0-2.24-6.4,7.94,7.94,0,0,0-4.12-3.24A19.64,19.64,0,0,0,311.8,291.16Z" transform="translate(-3.77 0)" fill="#1d2a3f"/><path d="M358.2,299.48q0-7.6,4.32-11.44t13.36-3.84a51.86,51.86,0,0,1,6.72.44,27.54,27.54,0,0,1,5.2,1.08,2.79,2.79,0,0,1,1.56,1.24,4.08,4.08,0,0,1,.28,1.56v3.68q-3-.4-6.08-.68t-6.4-.28a21.9,21.9,0,0,0-5.2.52,8.93,8.93,0,0,0-3.32,1.48,5.23,5.23,0,0,0-1.76,2.4,9.86,9.86,0,0,0-.52,3.36,9.66,9.66,0,0,0,.56,3.56A5.86,5.86,0,0,0,368.8,305a13.71,13.71,0,0,0,3.44,1.88q2.12.84,5.24,2t5.8,2.4a16.3,16.3,0,0,1,4.48,3,11.94,11.94,0,0,1,2.88,4.4,18.59,18.59,0,0,1,1,6.6q0,8.64-4.64,12.36t-13.44,3.72a52.15,52.15,0,0,1-7.44-.52,30,30,0,0,1-5.6-1.24,2.8,2.8,0,0,1-1.44-1,3,3,0,0,1-.4-1.6v-4q2.8.4,6.2.8a61.85,61.85,0,0,0,7.24.4,21.6,21.6,0,0,0,5.56-.6,8.66,8.66,0,0,0,3.44-1.68,5.62,5.62,0,0,0,1.72-2.68,12.52,12.52,0,0,0,.48-3.6,11,11,0,0,0-.52-3.68,5.39,5.39,0,0,0-1.8-2.44,14.8,14.8,0,0,0-3.4-1.88q-2.12-.88-5.32-2a56.81,56.81,0,0,1-6-2.48,16.37,16.37,0,0,1-4.4-3.08,12.13,12.13,0,0,1-2.76-4.32A17.52,17.52,0,0,1,358.2,299.48Z" transform="translate(-3.77 0)" fill="#1d2a3f"/><path d="M430.6,285a1.63,1.63,0,0,1,1.84,1.84v5H409.56v17h19a1.63,1.63,0,0,1,1.84,1.84v5.12h-20.8v17.68h21.92a2,2,0,0,1,1.4.48,1.76,1.76,0,0,1,.52,1.36v5H403.08q-1.92,0-1.92-1.84V285Z" transform="translate(-3.77 0)" fill="#1d2a3f"/><path d="M460.52,284.2a40.1,40.1,0,0,1,5.8.44A19.48,19.48,0,0,1,471,285.8a2.58,2.58,0,0,1,1.32,1,3.42,3.42,0,0,1,.36,1.68v3.76q-2.32-.32-5.16-.6t-5.88-.28a16.31,16.31,0,0,0-6.08,1,8.37,8.37,0,0,0-4,3.4,17,17,0,0,0-2.16,6.44,66.32,66.32,0,0,0-.64,10.12,61,61,0,0,0,.8,11,18.14,18.14,0,0,0,2.36,6.6,8,8,0,0,0,4,3.24,16.49,16.49,0,0,0,5.68.88,37.05,37.05,0,0,0,5.84-.4,25.87,25.87,0,0,1,3.76-.4q2,0,2,1.92v3.92a37.48,37.48,0,0,1-5.56,1.56,36.72,36.72,0,0,1-7.48.68,23,23,0,0,1-9-1.6,14.3,14.3,0,0,1-6.2-5.08,23.7,23.7,0,0,1-3.56-8.88,65,65,0,0,1-1.12-13,66.06,66.06,0,0,1,1.12-13.12,23.35,23.35,0,0,1,3.56-8.88,14,14,0,0,1,6.28-5A24.9,24.9,0,0,1,460.52,284.2Z" transform="translate(-3.77 0)" fill="#1d2a3f"/><path d="M517.56,320.84q0,10.56-4.28,15.52t-14,5a28.86,28.86,0,0,1-8-1,13.25,13.25,0,0,1-5.84-3.36,15.15,15.15,0,0,1-3.6-6.28,33.11,33.11,0,0,1-1.24-9.84V285h6.48q1.92,0,1.92,1.84v34.88a28,28,0,0,0,.44,5.2,10.31,10.31,0,0,0,1.56,4,6.93,6.93,0,0,0,3.08,2.48,13,13,0,0,0,5.08.84,12.49,12.49,0,0,0,5-.84,7.08,7.08,0,0,0,3-2.44,10,10,0,0,0,1.56-3.92,29.13,29.13,0,0,0,.44-5.36V285h6.48a2,2,0,0,1,1.4.48,1.76,1.76,0,0,1,.52,1.36Z" transform="translate(-3.77 0)" fill="#1d2a3f"/><path d="M530.36,340.44q-1.92,0-1.92-1.84V286q3.52-.64,7.92-1.08t8.88-.44q9.6,0,13.92,4.2t4.32,12.68a16.09,16.09,0,0,1-2.76,9.76,15,15,0,0,1-7.32,5.36,51.76,51.76,0,0,1,3.88,5.44q2,3.12,3.68,6.4t3.12,6.48q1.4,3.2,2.2,5.68h-6.95a2.49,2.49,0,0,1-1.64-.44,3,3,0,0,1-.84-1.32q-.72-2-2-4.6t-2.72-5.36q-1.48-2.76-3.25-5.52a51.88,51.88,0,0,0-3.6-5h-8.56v22.24Zm6.4-28.72h8.8a16.27,16.27,0,0,0,3.88-.44,7.47,7.47,0,0,0,3.12-1.56,7.15,7.15,0,0,0,2-3.16,15.7,15.7,0,0,0,.72-5.16,17.12,17.12,0,0,0-.64-5.12,7.58,7.58,0,0,0-1.88-3.2,6.54,6.54,0,0,0-3.16-1.64,20.27,20.27,0,0,0-4.48-.44q-2.72,0-4.88.16t-3.52.4Z" transform="translate(-3.77 0)" fill="#1d2a3f"/><path d="M575.72,340.44q-1.92,0-1.92-1.84V285h6.48q1.92,0,1.92,1.84v53.6Z" transform="translate(-3.77 0)" fill="#1d2a3f"/><path d="M604.6,292H591.88Q590,292,590,290.2V285H625.8a2,2,0,0,1,1.4.48,1.76,1.76,0,0,1,.52,1.36V292H613v48.4h-6.48q-1.92,0-1.92-1.84Z" transform="translate(-3.77 0)" fill="#1d2a3f"/><path d="M649.72,340.44q-1.92,0-1.92-1.84V319.4q-2.72-4.56-5-8.76t-4.08-8.4q-1.84-4.2-3.4-8.44t-2.84-8.8h7.28q1.2,0,1.56.52a5.86,5.86,0,0,1,.68,1.64q.72,2.56,1.76,5.52t2.28,6.2q1.24,3.24,2.76,6.64t3.36,6.76q1.84-3.44,3.56-7.32t3.12-7.6q1.4-3.72,2.44-7a45.78,45.78,0,0,0,1.44-5.4H669a1.75,1.75,0,0,1,1.6.76,2.08,2.08,0,0,1,.08,1.88q-1.44,4.56-3,8.56t-3.28,7.8q-1.76,3.8-3.8,7.56t-4.44,7.84v21Z" transform="translate(-3.77 0)" fill="#1d2a3f"/></g></svg>