<svg id="Capa_1" data-name="Capa 1" xmlns="http://www.w3.org/2000/svg" xmlns:xlink="http://www.w3.org/1999/xlink" viewBox="0 0 800.32 640"><defs><clipPath id="clip-path" transform="translate(0.32)"><rect x="-141.72" y="-107.39" width="1096.79" height="839.41" fill="none"/></clipPath></defs><title>evaluativa</title><polygon points="800.32 640 0 640 0 61.61 0 0 33.05 0 800.32 0 800.32 640" fill="#e20e17"/><g clip-path="url(#clip-path)"><path d="M656.49,260.9a51.43,51.43,0,0,0-43.14,79.47,23.4,23.4,0,0,1-.38-4.18v-.26a22.45,22.45,0,0,1,2.11-10,19.48,19.48,0,0,1,5.85-7.09,25.58,25.58,0,0,1,8.94-4.21,43.73,43.73,0,0,1,11.25-1.39,61.77,61.77,0,0,1,10.7.79,66,66,0,0,1,8.48,2.11v-1.3c0-4.83-1.46-8.5-4.39-11s-7.17-3.82-12.68-3.82a42.41,42.41,0,0,0-10.51,1.18,69.84,69.84,0,0,0-9.33,3.14L619,291.51a72.48,72.48,0,0,1,11.82-4.21,58.49,58.49,0,0,1,14.62-1.58q15.5,0,23,7.69T675.89,315v41.17H660.14v-8.54a29.79,29.79,0,0,1-9.07,7.09,28.59,28.59,0,0,1-13.41,2.92,32.68,32.68,0,0,1-6.93-.73,51.45,51.45,0,1,0,25.75-96" transform="translate(0.32)" fill="#fff"/><path d="M642.11,345.64a24.14,24.14,0,0,0,7.31-1,18.88,18.88,0,0,0,5.85-2.92,13.32,13.32,0,0,0,3.88-4.59,12.91,12.91,0,0,0,1.37-6v-3.95a41.51,41.51,0,0,0-7.17-2,46.53,46.53,0,0,0-8.77-.79q-7.49,0-11.7,2.92a9.08,9.08,0,0,0-4.2,7.88v.26a8.64,8.64,0,0,0,3.92,7.56,16.58,16.58,0,0,0,9.53,2.62" transform="translate(0.32)" fill="#fff"/><path d="M444,354.81v-8.15a28.31,28.31,0,0,1-8.64,6.77,27.32,27.32,0,0,1-12.8,2.76,30.55,30.55,0,0,1-9-1.32,22.23,22.23,0,0,1-7.46-3.89A18.86,18.86,0,0,1,399,335.71v-.25a21.54,21.54,0,0,1,2-9.59,18.72,18.72,0,0,1,5.59-6.77,24.36,24.36,0,0,1,8.53-4,41.56,41.56,0,0,1,10.72-1.32,59.08,59.08,0,0,1,10.24.75,63.63,63.63,0,0,1,8.09,2v-1.27c0-4.61-1.46-8.1-4.2-10.53s-6.83-3.64-12.09-3.64a40.48,40.48,0,0,0-10,1.13,66.66,66.66,0,0,0-8.91,3L404.78,293a69.48,69.48,0,0,1,11.27-4A55.89,55.89,0,0,1,430,287.56q14.81,0,21.94,7.31t7.15,20.63v39.25ZM444.4,327a40.12,40.12,0,0,0-6.84-1.87,44.38,44.38,0,0,0-8.34-.75q-7.17,0-11.17,2.75a8.67,8.67,0,0,0-4,7.53V335a8.25,8.25,0,0,0,3.7,7.31,15.79,15.79,0,0,0,9.1,2.5,23.19,23.19,0,0,0,7-1,18.06,18.06,0,0,0,5.59-2.82,12.91,12.91,0,0,0,3.7-4.39,12.34,12.34,0,0,0,1.33-5.7Z" transform="translate(0.32)" fill="#fff"/><path d="M491.63,356.07a28.44,28.44,0,0,1-7.81-1,16.09,16.09,0,0,1-6.23-3.25,14.62,14.62,0,0,1-4.05-6.05,26.73,26.73,0,0,1-1.46-9.37V300.92h-8.53V287.67h8.53V269.2h15.6v18.47h18.09v13.25H487.69v33c0,2.92.72,5.12,2.16,6.43a8.77,8.77,0,0,0,6.11,2,21.15,21.15,0,0,0,9.55-2.3v12.61a26.92,26.92,0,0,1-6.24,2.54,29.35,29.35,0,0,1-7.63.89" transform="translate(0.32)" fill="#bfbebe"/><path d="M512.85,262.71h16.66v14.62H512.85Zm.64,25H529v67.27h-15.6Z" transform="translate(0.32)" fill="#bfbebe"/><polygon points="532.83 287.67 549.38 287.67 567.47 337.1 585.69 287.67 601.87 287.67 574.35 355.44 560.47 355.44 532.83 287.67" fill="#bfbebe"/><polygon points="104.28 260.91 168.53 260.91 168.53 275.84 119.5 275.84 119.5 300.56 162.96 300.56 162.96 315.49 119.5 315.49 119.5 341.01 169.15 341.01 169.15 355.94 104.28 355.94 104.28 260.91" fill="#fff"/><rect x="305.37" y="260.84" width="14.97" height="95.1" fill="#fff"/><path d="M332.66,330.2V287.59h15v38c0,10.5,5.07,16.52,14,16.52,8.67,0,14.73-6.27,14.73-16.77V287.59h15v67.27h-15v-10.5c-4.21,6.41-10.24,11.9-20.47,11.9-14.74,0-23.28-10.24-23.28-26" transform="translate(0.32)" fill="#fff"/><path d="M280.42,354.81v-8.15a28.33,28.33,0,0,1-8.64,6.77A27.32,27.32,0,0,1,259,356.19a30.55,30.55,0,0,1-9-1.32,22.24,22.24,0,0,1-7.46-3.89,18.88,18.88,0,0,1-7.08-15.27v-.25a21.54,21.54,0,0,1,2-9.59A18.72,18.72,0,0,1,243,319.1a24.36,24.36,0,0,1,8.53-4,41.56,41.56,0,0,1,10.72-1.32,59.08,59.08,0,0,1,10.24.75,63.72,63.72,0,0,1,8.09,2v-1.27c0-4.61-1.46-8.1-4.2-10.53s-6.83-3.64-12.11-3.64a40.49,40.49,0,0,0-10,1.13,66.66,66.66,0,0,0-8.91,3L241.17,293a69.45,69.45,0,0,1,11.29-4,55.88,55.88,0,0,1,13.92-1.46q14.81,0,21.94,7.31t7.21,20.69v39.25ZM280.8,327a40.12,40.12,0,0,0-6.84-1.87,44.37,44.37,0,0,0-8.34-.75q-7.17,0-11.17,2.75a8.67,8.67,0,0,0-4,7.53V335a8.25,8.25,0,0,0,3.7,7.31,15.79,15.79,0,0,0,9.1,2.5,23.18,23.18,0,0,0,7-1,18,18,0,0,0,5.59-2.82,12.88,12.88,0,0,0,3.7-4.39,12.34,12.34,0,0,0,1.33-5.7Z" transform="translate(0.32)" fill="#fff"/><polygon points="169.37 287.6 185.92 287.6 204.01 337.54 222.23 287.6 238.41 287.6 210.89 356.07 197.01 356.07 169.37 287.6" fill="#fff"/></g></svg>