<svg xmlns="http://www.w3.org/2000/svg" viewBox="0 0 800 640"><title>FYM</title><g id="Capa_3" data-name="Capa 3"><rect width="800" height="640" fill="#357376"/></g><g id="Capa_2" data-name="Capa 2"><path d="M332.44,297.92l-8.19.51q-.17-7.06-5.51-7.06-6.12,0-6.12,10.87,0,6.28,1.66,8.52a5.47,5.47,0,0,0,4.65,2.24q4.85,0,5.93-6.3l7.58.46q-.73,6-4.46,9.1a14.95,14.95,0,0,1-19.89-1.45Q304,310.24,304,302.18q0-7.55,4-12.37A13.49,13.49,0,0,1,318.91,285Q330.93,285,332.44,297.92Z" fill="#fff"/><path d="M365.84,285.51l10.44,33.36h-8.4L365.83,312H355L353,318.87h-6.85l10.69-33.36Zm-8.92,20.33H364l-3.5-11.71Z" fill="#fff"/><path d="M400.26,305.65v13.22h-7.87V285.51h14.66a18.59,18.59,0,0,1,6.51.94,8.37,8.37,0,0,1,4.07,3.46,10.15,10.15,0,0,1,1.61,5.59q0,6-5.79,8.62l6.16,14.75H411l-5.12-13.22Zm0-14.2V300H405a12.61,12.61,0,0,0,3.41-.33,3.76,3.76,0,0,0,1.89-1.47,4.3,4.3,0,0,0,.83-2.6,4,4,0,0,0-.83-2.49,3.43,3.43,0,0,0-1.81-1.36,17.09,17.09,0,0,0-3.67-.26Z" fill="#fff"/><path d="M445.74,306.48v12.39H437.8V285.51h13.15a18.77,18.77,0,0,1,6.73.94,9.94,9.94,0,0,1,4.17,3.36,9.55,9.55,0,0,1,1.83,5.94,12.41,12.41,0,0,1-1,4.81,8.67,8.67,0,0,1-2.76,3.69,10.1,10.1,0,0,1-3.46,1.78,22.55,22.55,0,0,1-5.24.44Zm-.27-6.06h5.08q2.91,0,4.08-1.34a4.55,4.55,0,0,0,1.17-3.08,4.16,4.16,0,0,0-1.31-3.23,5.72,5.72,0,0,0-4-1.2h-5.06Z" fill="#fff"/><path d="M488.31,285.51v33.36h-7.8V285.51Z" fill="#fff"/><path d="M533.18,285.51v33.36h-6.67l-13.05-22.53q0,.86,0,1.12a13.16,13.16,0,0,1,.1,1.44v20h-6.09V285.51h8.42l11.35,19.67q-.15-1.47-.15-2.22V285.51Z" fill="#fff"/><path d="M573.52,285.51v6.6h-8.26v26.76h-7.92V292.11H549v-6.6Z" fill="#fff"/><path d="M613.21,291.86H597.33v6.84h12.49V305H597.33v7.28h15.88v6.6H589.38V285.51h23.83Z" fill="#fff"/><path d="M638.28,305.65v13.22h-7.87V285.51h14.66a18.59,18.59,0,0,1,6.51.94,8.37,8.37,0,0,1,4.07,3.46,10.15,10.15,0,0,1,1.61,5.59q0,6-5.79,8.62l6.16,14.75H649l-5.12-13.22Zm0-14.2V300h4.79a12.61,12.61,0,0,0,3.41-.33,3.76,3.76,0,0,0,1.89-1.47,4.3,4.3,0,0,0,.83-2.6,4,4,0,0,0-.83-2.49,3.43,3.43,0,0,0-1.81-1.36,17.09,17.09,0,0,0-3.67-.26Z" fill="#fff"/><path d="M685.72,274l1.86,4.11-10.75,4.57-1.22-2.74Zm-2.1,11.51v33.36h-7.8V285.51Z" fill="#fff"/><path d="M719.22,285.51l10.44,33.36h-8.4L719.2,312H708.42l-2.09,6.87h-6.85l10.69-33.36Zm-8.92,20.33h7.07l-3.5-11.71Z" fill="#fff"/><path d="M387.29,347.58l1.9-.37q1.14,2.94,5,2.94a5.14,5.14,0,0,0,3-.73,2.27,2.27,0,0,0,1-1.94,1.75,1.75,0,0,0-.77-1.48,4.57,4.57,0,0,0-1.78-.77l-3.36-.71a9.57,9.57,0,0,1-2.14-.69,3.65,3.65,0,0,1-1.41-1.25,3.44,3.44,0,0,1,1-4.81,7.14,7.14,0,0,1,4.07-1.07q4.58,0,6,3.55l-1.91.49a3,3,0,0,0-1.56-1.91,5.54,5.54,0,0,0-2.62-.65,4.8,4.8,0,0,0-2.46.63,2,2,0,0,0-1.08,1.77q0,1.6,2.73,2.16l3.14.63q4.31.89,4.31,4a3.77,3.77,0,0,1-1.62,3.11,7.36,7.36,0,0,1-4.56,1.24Q389,351.69,387.29,347.58Z" fill="#fff"/><path d="M414.36,349.81v1.58H403.49V337h10.63v1.58h-8.53v4.58h6.77v1.47h-6.77v5.19Z" fill="#fff"/><path d="M429.38,351.39h-2.21l-3.1-6.23h-4.81v6.23h-2V337h6.62a5.54,5.54,0,0,1,4,1.26,3.79,3.79,0,0,1,1.3,2.76,3.83,3.83,0,0,1-.73,2.2,4.06,4.06,0,0,1-2.4,1.51Zm-10.12-7.7h4.39a3.72,3.72,0,0,0,2.59-.79,2.51,2.51,0,0,0,.86-1.93,2,2,0,0,0-.9-1.77,3.89,3.89,0,0,0-2.28-.63h-4.65Z" fill="#fff"/><path d="M443.8,337l-5.66,14.4h-2L430.44,337h2.2l4.68,11.88L442,337Z" fill="#fff"/><path d="M448.09,351.39H446V337h2.1Z" fill="#fff"/><path d="M462.36,346.55l1.92.37q-1.38,4.77-6.23,4.77a6.13,6.13,0,0,1-5-2.21,8.26,8.26,0,0,1-1.82-5.43,7.48,7.48,0,0,1,1.9-5.34,6.64,6.64,0,0,1,5.08-2,5.8,5.8,0,0,1,6.07,4.63l-2,.34q-1.08-3.44-4.1-3.44a4.1,4.1,0,0,0-3.45,1.6,7.24,7.24,0,0,0-1.22,4.49,6.68,6.68,0,0,0,1.26,4.25,4,4,0,0,0,3.32,1.6Q461.31,350.16,462.36,346.55Z" fill="#fff"/><path d="M469,351.39h-2.1V337H469Z" fill="#fff"/><path d="M479,351.69a6.22,6.22,0,0,1-5-2.16,8,8,0,0,1-1.81-5.29,7.83,7.83,0,0,1,1.9-5.4,7,7,0,0,1,10,0,7.61,7.61,0,0,1,1.88,5.28,8.26,8.26,0,0,1-1.83,5.34A6.19,6.19,0,0,1,479,351.69Zm0-1.47a4,4,0,0,0,3.45-1.72,7.39,7.39,0,0,0,1.24-4.43,6.61,6.61,0,0,0-1.29-4.34,4.21,4.21,0,0,0-3.42-1.55,4.06,4.06,0,0,0-3.42,1.68,7.1,7.1,0,0,0-1.27,4.39,6.87,6.87,0,0,0,1.28,4.31A4.1,4.1,0,0,0,479,350.22Z" fill="#fff"/><path d="M487.24,347.58l1.9-.37q1.14,2.94,5,2.94a5.14,5.14,0,0,0,3-.73,2.27,2.27,0,0,0,1-1.94,1.75,1.75,0,0,0-.77-1.48,4.57,4.57,0,0,0-1.78-.77l-3.36-.71a9.57,9.57,0,0,1-2.14-.69,3.65,3.65,0,0,1-1.41-1.25,3.44,3.44,0,0,1,1-4.81,7.14,7.14,0,0,1,4.07-1.07q4.58,0,6,3.55l-1.91.49a3,3,0,0,0-1.56-1.91,5.54,5.54,0,0,0-2.62-.65,4.8,4.8,0,0,0-2.46.63,2,2,0,0,0-1.08,1.77q0,1.6,2.73,2.16l3.14.63q4.31.89,4.31,4a3.77,3.77,0,0,1-1.62,3.11,7.36,7.36,0,0,1-4.56,1.24Q488.92,351.69,487.24,347.58Z" fill="#fff"/><path d="M522.19,344.13v7.46H520.9l-.58-1.8a5.61,5.61,0,0,1-4.62,1.9,6.46,6.46,0,0,1-5.17-2.14,7.7,7.7,0,0,1-1.85-5.2,7.88,7.88,0,0,1,2-5.46A6.78,6.78,0,0,1,516,336.7q4.64,0,6.06,4.18l-2,.41a3.73,3.73,0,0,0-1.61-2.33,4.83,4.83,0,0,0-2.58-.73,4.14,4.14,0,0,0-3.67,1.72,7.46,7.46,0,0,0-1.18,4.32,6.61,6.61,0,0,0,1.32,4.38,4.87,4.87,0,0,0,6.56.57,3.46,3.46,0,0,0,1.19-2.79q0-.33,0-.78h-4.16v-1.51Z" fill="#fff"/><path d="M536.92,349.81v1.58H526.05V337h10.63v1.58h-8.53v4.58h6.77v1.47h-6.77v5.19Z" fill="#fff"/><path d="M552.23,351.39h-2l-8.69-12.55,0,.95q0,.54,0,.91v10.7h-1.7V337h2.63l8.12,11.73,0-1q0-.59,0-1V337h1.66Z" fill="#fff"/><path d="M567.3,349.81v1.58H556.43V337h10.63v1.58h-8.53v4.58h6.77v1.47h-6.77v5.19Z" fill="#fff"/><path d="M582.32,351.39h-2.21l-3.1-6.23h-4.81v6.23h-2V337h6.62a5.54,5.54,0,0,1,4,1.26,3.79,3.79,0,0,1,1.3,2.76,3.83,3.83,0,0,1-.73,2.2,4.06,4.06,0,0,1-2.4,1.51Zm-10.12-7.7h4.39a3.72,3.72,0,0,0,2.59-.79A2.51,2.51,0,0,0,580,341a2,2,0,0,0-.9-1.77,3.89,3.89,0,0,0-2.28-.63h-4.65Z" fill="#fff"/><path d="M597,351.39h-2.15l-1.69-4.21h-6.23l-1.5,4.21h-1.76l5.46-14.4h2.38Zm-4.29-5.56-2.6-6.92-2.6,6.92Z" fill="#fff"/><path d="M609.11,349.81v1.58h-9.92V337h2.15v12.82Z" fill="#fff"/><path d="M622.4,349.81v1.58H611.53V337h10.63v1.58h-8.53v4.58h6.77v1.47h-6.77v5.19Z" fill="#fff"/><path d="M623.49,347.58l1.9-.37q1.14,2.94,5,2.94a5.14,5.14,0,0,0,3-.73,2.27,2.27,0,0,0,1-1.94,1.75,1.75,0,0,0-.77-1.48,4.57,4.57,0,0,0-1.78-.77l-3.36-.71a9.57,9.57,0,0,1-2.14-.69,3.65,3.65,0,0,1-1.41-1.25,3.44,3.44,0,0,1,1-4.81A7.14,7.14,0,0,1,630,336.7q4.58,0,6,3.55l-1.91.49a3,3,0,0,0-1.56-1.91,5.54,5.54,0,0,0-2.62-.65,4.8,4.8,0,0,0-2.46.63,2,2,0,0,0-1.08,1.77q0,1.6,2.73,2.16l3.14.63q4.31.89,4.31,4a3.77,3.77,0,0,1-1.62,3.11,7.36,7.36,0,0,1-4.56,1.24Q625.17,351.69,623.49,347.58Z" fill="#fff"/><rect x="81" y="236" width="194" height="152" fill="none" stroke="#fff" stroke-miterlimit="10" stroke-width="5"/><polygon points="81 236 81 388 275 388 81 236" fill="#fff"/><path d="M254.47,254.68V308h-15.2V269.88L229.41,308H219l-10.25-38.12V308H196.5V254.68h21.39L225.62,283,233,254.68Z" fill="#fff"/><path d="M152.58,350.7H135.2v20H119.26V317.34h38.55V330H135.2v8.67h17.38Z" fill="#357376"/></g></svg>