<svg xmlns="http://www.w3.org/2000/svg" xmlns:xlink="http://www.w3.org/1999/xlink" viewBox="0 0 800 640"><defs><linearGradient id="Degradado_sin_nombre_79" x1="-38.56" y1="66.79" x2="838.56" y2="573.21" gradientUnits="userSpaceOnUse"><stop offset="0" stop-color="#a26ead"/><stop offset="0.11" stop-color="#9d849b"/><stop offset="0.35" stop-color="#94b175"/><stop offset="0.47" stop-color="#90c367"/><stop offset="0.56" stop-color="#99be63"/><stop offset="0.71" stop-color="#b1b259"/><stop offset="0.89" stop-color="#d89e49"/><stop offset="1" stop-color="#f3903e"/></linearGradient><linearGradient id="Degradado_sin_nombre_7" x1="512.53" y1="317.48" x2="599.68" y2="317.48" gradientTransform="translate(11.79 -37.16) rotate(4.42)" gradientUnits="userSpaceOnUse"><stop offset="0" stop-color="#27348b"/><stop offset="1" stop-color="#009fe3"/></linearGradient><linearGradient id="Degradado_sin_nombre_7-2" x1="593.52" y1="291.3" x2="714.83" y2="291.3" gradientTransform="translate(43.78 -134.87) rotate(14.25)" xlink:href="#Degradado_sin_nombre_7"/><linearGradient id="Degradado_sin_nombre_7-3" x1="666.19" y1="336" x2="753.34" y2="336" gradientTransform="translate(59.32 -157.83) rotate(14.89)" xlink:href="#Degradado_sin_nombre_7"/><linearGradient id="Degradado_sin_nombre_7-4" x1="89.47" y1="333.53" x2="216.02" y2="333.53" gradientTransform="matrix(1, 0, 0, 1, 0, 0)" xlink:href="#Degradado_sin_nombre_7"/><linearGradient id="Degradado_sin_nombre_7-5" x1="177.91" y1="345.32" x2="271.08" y2="345.32" gradientTransform="matrix(1, 0, 0, 1, 0, 0)" xlink:href="#Degradado_sin_nombre_7"/><linearGradient id="Degradado_sin_nombre_7-6" x1="250.42" y1="302.98" x2="374.34" y2="302.98" gradientTransform="matrix(1, 0, 0, 1, 0, 0)" xlink:href="#Degradado_sin_nombre_7"/><linearGradient id="Degradado_sin_nombre_7-7" x1="390.14" y1="299.59" x2="486.63" y2="299.59" gradientTransform="translate(42.31 -69.35) rotate(13.94)" xlink:href="#Degradado_sin_nombre_7"/><linearGradient id="Degradado_sin_nombre_7-8" x1="406.37" y1="304.91" x2="515.59" y2="304.91" gradientTransform="matrix(1, 0, 0, 1, 0, 0)" xlink:href="#Degradado_sin_nombre_7"/></defs><title>pokedata</title><g id="Capa_2" data-name="Capa 2"><rect width="800" height="640" fill="url(#Degradado_sin_nombre_79)"/></g><g id="Capa_3" data-name="Capa 3"><polygon points="204.66 311.84 181.78 326.29 181.78 354.78 185.51 378.21 209.13 391.42 238.37 384.2 257.14 359.69 262.6 338.5 249.92 308.97 226.22 298.97 204.66 311.84" fill="#feca0a"/><polygon points="254.92 251.93 254.92 239.37 292.93 227.68 294.5 309.05 324.78 296.47 345.6 296.47 355.61 300.33 314.15 326.25 358.77 355.01 358.84 374.53 298.53 336.91 299.65 372.78 272.6 373.34 262.6 253.63 254.92 251.93" fill="#feca0a"/><path d="M98.83,272.35l56.76-17.67,26.89,2.07,20.45,6.77,8.15,14.36-14.11,26-23.41,22.4-11.08,18,16.7,49.1s-9,8.11-9.85,8.61-13.43,8.62-13.43,8.62l-20.38-66,23.82-23.82,17.87-21L181,285.71l-20.3-2.07L147.44,291,155,317.37l1.89,18.18-16,16L123,308.91l-5.64-12.54-6.42,9.15Z" transform="translate(-3.77 0)" fill="#feca0a"/><polygon points="139.29 285.4 134.9 294.35 146.81 338.53 152.3 330.88 139.29 285.4" fill="#c7a00b"/><path d="M102.3,276.31s132.37-41.8,89.38,29.89l19.4-28.32-15-22.49-35.46-4.77L113,267.93l-14.21,4.43Z" transform="translate(-3.77 0)" fill="#c7a00b"/><polygon points="156.38 336.65 148.55 342.04 167.71 405.08 173.87 400.63 156.38 336.65" fill="#c7a00b"/><path d="M220.55,317.15s-24.82,21.64-7,36.79c0,0,19.53,13.94,33.16-12l-19.87-3.18Z" transform="translate(-3.77 0)" fill="#c7a00b"/><path d="M196.46,322.1s74.82-47.16,59.68,35.58l4.77,2,5.45-30.36-10.54-15.39L230,299Z" transform="translate(-3.77 0)" fill="#c7a00b"/><polygon points="256.6 247.15 283.6 236.88 289.32 319.14 294.5 312.04 292.93 227.68 254.92 239.37 256.6 247.15" fill="#c7a00b"/><polygon points="320.89 299.62 345.69 302.89 355.77 296.55 331.32 292.01 320.89 299.62" fill="#c7a00b"/><polygon points="296.96 330.9 291.5 335.89 293.14 374.53 301.87 374.53 296.96 330.9" fill="#c7a00b"/><polygon points="311.69 323.92 306.92 326.82 357.94 360.27 357.94 352.72 311.69 323.92" fill="#c7a00b"/><path d="M376,327.1s-14.18,12.41-6,41.87l6.84-9.27L372.15,340Z" transform="translate(-3.77 0)" fill="#c7a00b"/><polygon points="508.45 304 534.29 286.99 550.03 290.83 580.83 278.99 573.55 373.28 545.84 372.28 546.03 362.75 524.36 367.09 504.37 356.79 496.25 335.11 508.45 304" fill="#feca0a"/><path d="M530.86,310.54s-19.39,31.52,20.09,23.19Z" transform="translate(-3.77 0)" fill="#c7a00b"/><polygon points="569.35 283.41 563.66 373.66 572.93 370.71 580.02 278.93 569.35 283.41" fill="#c7a00b"/><path d="M554.07,287.21l30.71-11.05-2.5,39.73a55.68,55.68,0,0,1-.08,8.42,47.72,47.72,0,0,1-.76,6.08L578.93,374l-32.08-.76.33-4.33a41.44,41.44,0,0,1-16,2,35.07,35.07,0,0,1-11.32-2.73,30.71,30.71,0,0,1-8.88-5.69,34.74,34.74,0,0,1-8.77-14.93,50.61,50.61,0,0,1-2.09-19.12q1.32-17.11,12-26.85a66.14,66.14,0,0,1,18.62-12.2,40.41,40.41,0,0,1,18.85-3.19q2.63.2,4,.45Zm3.34,2-.15,2a30.89,30.89,0,0,0-3.47-.41,38.32,38.32,0,0,0-9,.38,50.27,50.27,0,0,0-9.52,2.55,56,56,0,0,0-9.84,4.81,55,55,0,0,0-9,6.81,35.07,35.07,0,0,0-6.23,7.55,39.32,39.32,0,0,0-3.88,8.56,40.57,40.57,0,0,0-1.78,9.11,39.91,39.91,0,0,0,2.22,17,28,28,0,0,0,8.63,12.56q4.5,3.71,13.37,4.39a52,52,0,0,0,23-3.51l-.7,9,23.42.1,6.24-89.08Zm-4.88,10.41a12.06,12.06,0,0,0-6.36,10.22q-.37,4.83,1.63,6.7a6,6,0,0,0,3.33,1.26L550,333A20.39,20.39,0,0,1,547,333a19.5,19.5,0,0,1-10.65-4.47q-5.79-4.52-5.29-11a14.83,14.83,0,0,1,2-6.24,21.18,21.18,0,0,1,4.68-5.6,26.5,26.5,0,0,1,6.86-4.18A22.82,22.82,0,0,1,552.54,299.66Z" transform="translate(-3.77 0)" fill="#2f5198" stroke-miterlimit="10" stroke-width="5" stroke="url(#Degradado_sin_nombre_7)"/><polygon points="563.58 236.2 673.5 253.68 666.7 280.46 660.67 285.41 627.33 276.94 609.41 382.34 575.92 372.45 597.48 272.44 556.6 263.69 563.58 236.2" fill="#feca0a"/><polygon points="663.83 254.97 658.49 284.85 666.7 280.46 670.31 256.03 663.83 254.97" fill="#c7a00b"/><polygon points="627.38 272.16 620.6 281.13 600.44 378.22 606.78 379.83 627.38 272.16" fill="#c7a00b"/><path d="M635.68,280.85,613.57,384.39l-4.21-1.07q-4.14-1.05-10.41-3a116.83,116.83,0,0,1-11.28-3.88,30.07,30.07,0,0,1-7.19-3.82l20.39-99.35L557.7,263.07l8.26-29.9,112.27,19.91-6.69,33.55Zm-3.3-6.12,35.94,7.75,5.41-25.92L568.14,236.4l-5.49,23.94L605,269.06,585.38,369.84q2.93,1.48,9,4.08a73.26,73.26,0,0,0,10.38,3.69q5.94,1.51,6.4-.32l0-.15Z" transform="translate(-3.77 0)" fill="#2f5198" stroke-miterlimit="10" stroke-width="5" stroke="url(#Degradado_sin_nombre_7-2)"/><polygon points="671.87 320.37 704.32 314.33 680.02 405.72 651.19 395.92 628.92 390.18 612.07 372.99 612.83 345.56 637.02 320.21 671.87 320.37" fill="#fff"/><polygon points="652.58 315.82 671.87 320.37 701.57 314.85 682.8 395.25 678.44 405.19 652.07 399.47 651.81 394.07 633.63 391.39 614.4 375.37 614.32 343.99 633.11 324.31 652.58 315.82" fill="#feca0a"/><path d="M650.27,335.2s-24.8,27.47,15.54,26.46Z" transform="translate(-3.77 0)" fill="#c7a00b"/><polygon points="693.77 316.41 671.78 404.12 681.43 402.91 705.08 313.95 693.77 316.41" fill="#c7a00b"/><path d="M677.36,317.07l32.21-5.29-9.68,38.61a55.68,55.68,0,0,1-1.61,8.27,47.89,47.89,0,0,1-1.85,5.84L686,406.91l-31.41-6.58,1.12-4.2a41.44,41.44,0,0,1-16.1-1A35.07,35.07,0,0,1,629,390.42a30.71,30.71,0,0,1-7.7-7.21,34.74,34.74,0,0,1-5.91-16.27,50.61,50.61,0,0,1,1.42-19.18q4.41-16.58,16.68-24.23A66.14,66.14,0,0,1,654,314.92a40.41,40.41,0,0,1,19.12.29q2.54.68,3.82,1.16Zm2.91,2.62-.51,1.93a30.89,30.89,0,0,0-3.34-1,38.32,38.32,0,0,0-8.88-1.25,50.27,50.27,0,0,0-9.82.78A56,56,0,0,0,647.18,323a55,55,0,0,0-10,5.07,35.07,35.07,0,0,0-7.5,6.3,39.32,39.32,0,0,0-5.37,7.71,40.57,40.57,0,0,0-3.4,8.64,39.91,39.91,0,0,0-.9,17.11,28,28,0,0,0,6.21,13.92q3.75,4.46,12.35,6.75a52,52,0,0,0,23.24.73L659.45,398l23,4.35,22.33-86.46ZM673.59,329a12.06,12.06,0,0,0-8.11,8.9q-1.24,4.68.38,6.88a6,6,0,0,0,3,1.84L665,361.31a20.39,20.39,0,0,1-2.89-.47,19.5,19.5,0,0,1-9.66-6.33q-4.88-5.5-3.21-11.76a14.83,14.83,0,0,1,3.12-5.77,21.18,21.18,0,0,1,5.62-4.66,26.5,26.5,0,0,1,7.5-2.87A22.82,22.82,0,0,1,673.59,329Z" transform="translate(-3.77 0)" fill="#2f5198" stroke-miterlimit="10" stroke-width="5" stroke="url(#Degradado_sin_nombre_7-3)"/><path d="M93,268.73q10.69-3.53,20.1-6.54t19.84-5.7q10.42-2.69,19.92-4.29a113,113,0,0,1,18.69-1.59,73,73,0,0,1,13.17,1.1,45,45,0,0,1,11.35,3.67,33.64,33.64,0,0,1,9.54,6.85,35.05,35.05,0,0,1,6.85,10.12,12.26,12.26,0,0,1,1.06,5q0,9.9-10.82,24.39A223.27,223.27,0,0,1,181,327q-10.91,10.78-16.3,15.46l15.9,55.75L157.41,415,116.86,299.12a9.05,9.05,0,0,0-1.68,1.68l-3.93,4.37q-2.43,2.7-3,3.31-.27,0-1.72-3.8t-3.89-10.56q-2.43-6.76-5.48-15T93,268.73Zm5.83,3.62,10.78,28.89a22.46,22.46,0,0,1,4.82-4.77q2.78-2,4.64-2a1.31,1.31,0,0,1,1.41,1.06l38.44,112.92,16.61-10.16-16.61-58.58a240.46,240.46,0,0,0,22.27-21.25A157.94,157.94,0,0,0,199.61,295q7-11.22,7-18.11a8.58,8.58,0,0,0-.71-3.8,25.16,25.16,0,0,0-5.08-7.82,26,26,0,0,0-7.16-5.21,34.49,34.49,0,0,0-9-2.92,60.18,60.18,0,0,0-11-.93,105.41,105.41,0,0,0-15.46,1.19q-8,1.19-16.66,3.27t-21.74,5.7Q106.7,270,98.83,272.35Zm45.59,15.2q6-1.41,11-2.69t10.16-2.12a56,56,0,0,1,8.7-.84,25.88,25.88,0,0,1,5.57.53q4.86,1.41,4.86,5.65,0,8-11,20.85t-18.38,19.88Zm5.74,5.74,7.25,26.07q5.48-5.57,13.61-15.2t8.13-14a1.71,1.71,0,0,0-1.41-1.94,36.25,36.25,0,0,0-7.86-.88Q158.21,287.37,150.17,293.29Z" transform="translate(-3.77 0)" fill="#2f5198" stroke-miterlimit="10" stroke-width="5" stroke="url(#Degradado_sin_nombre_7-4)"/><path d="M253.13,305.27a24.88,24.88,0,0,1,8.88,7.88,34.43,34.43,0,0,1,5,11.15,52,52,0,0,1,1.58,12.88,63.17,63.17,0,0,1-.88,10.68,56.63,56.63,0,0,1-2.42,9.45,31.31,31.31,0,0,1-3.61,7.3,72.65,72.65,0,0,1-10.38,12.45,56.11,56.11,0,0,1-11.3,8.42,50.2,50.2,0,0,1-11.42,4.69,43.48,43.48,0,0,1-11.18,1.5,37.68,37.68,0,0,1-12.41-2,33.57,33.57,0,0,1-10-5.34A37.49,37.49,0,0,1,184.25,369a54.63,54.63,0,0,1-3.84-20.41q0-18.52,10.68-29.9A69.22,69.22,0,0,1,210,303.92a43.57,43.57,0,0,1,31.52-3.46A54,54,0,0,1,253.13,305.27ZM250,309.19q-6.53-5.84-16.83-5.84a37.73,37.73,0,0,0-12,2.11,54.26,54.26,0,0,0-12.72,6.38,68.44,68.44,0,0,0-12.26,10.57,37.86,37.86,0,0,0-6.07,8.65,42.47,42.47,0,0,0-3.46,9.53,43.82,43.82,0,0,0-1.15,10,43.09,43.09,0,0,0,3.81,18.1,30.18,30.18,0,0,0,10.34,12.8q6.76,4.69,16.68,4.69,11.22,0,22.33-6.65a49,49,0,0,0,17.95-19.33,46.14,46.14,0,0,0,6.3-22.83,36.64,36.64,0,0,0-3.31-15.49A37.19,37.19,0,0,0,250,309.19Zm-1.38,9a25.68,25.68,0,0,1,.92,7.07,31.09,31.09,0,0,1-2.23,11.34,23.31,23.31,0,0,1-6.46,9.38,14.39,14.39,0,0,1-9.69,3.65q-5.53,0-11.68-3.92-6.61-4.23-6.61-11.38a16.06,16.06,0,0,1,2-7.65,25,25,0,0,1,5.42-6.84,27.65,27.65,0,0,1,8.07-5,25.71,25.71,0,0,1,9.84-1.92,15.46,15.46,0,0,0-7.42,5.46,12.36,12.36,0,0,0-2.34,7q0,4.61,2.31,6.46a6.49,6.49,0,0,0,3.69,1.08q4.15,0,8.49-4.46A21.16,21.16,0,0,0,248.59,318.18Z" transform="translate(-3.77 0)" fill="#2f5198" stroke-miterlimit="10" stroke-width="5" stroke="url(#Degradado_sin_nombre_7-5)"/><path d="M257.45,239l39-15,5.69,81.15,32.13-16.09,33.36,4.57-43.51,30.49,41,28.24L367,380.6l-60.42-39.7,1.92,34.5L271.9,376,265,254l-11.3,2.32Zm99.47,58.1-22-2.88-36.51,16.16-5.69-81.15-31.52,12.08-2.54,9.77,10.76-5.2,6.92,126.61,27.06-.56-1.23-39.13,60.42,40.89q0-3.58-.69-11.87t-1.15-8.29q-.16,0-7.8-5t-14-9.2q-6.34-4.22-13.26-8.78L316,324.18Z" transform="translate(-3.77 0)" fill="#2f5198" stroke-miterlimit="10" stroke-width="5" stroke="url(#Degradado_sin_nombre_7-6)"/><polygon points="376.57 288.89 397.21 286.08 415.63 291.96 433.87 299.14 437.45 307.54 417.56 322.04 391 337.18 380.9 348.12 400.65 347.1 415.04 335.42 423.7 343.6 428.98 354.58 426.99 362.61 413.24 368.73 388.28 368.46 364.01 365.28 353.89 355.59 378.57 329.5 391.84 316.78 402.34 311.14 394.46 303.94 381.33 305.93 373.28 317.85 370.1 331.9 373.63 341.48 368.16 354.45 359.7 357.97 345.92 345.76 346 322.22 358.94 302.15 366.39 294.69 376.57 288.89" fill="#feca0a"/><path d="M368.93,299.61s36.66-12.88,61.91,8.8l9-4.22-22.87-17.67-32.64,3.34Z" transform="translate(-3.77 0)" fill="#c7a00b"/><path d="M381.37,345.84l-8.23,5.73S395,355.48,398.31,350,381.37,345.84,381.37,345.84Z" transform="translate(-3.77 0)" fill="#c7a00b"/><polygon points="411.8 342.7 421.08 364.4 428.49 356.54 417.85 334.93 411.8 342.7" fill="#c7a00b"/><path d="M422,332.28l12.59,26.17q-3.72,5.73-13.11,8.94a70.27,70.27,0,0,1-21.29,3.47,87.43,87.43,0,0,1-23-2.51,56.4,56.4,0,0,1-16.92-7,25.51,25.51,0,0,1-9.94-10.86q-5-10.9-1.46-25.07a64.31,64.31,0,0,1,9.54-21q6.76-9.85,12.39-13a57,57,0,0,1,14-5.64,58.89,58.89,0,0,1,14.52-1.86,59.69,59.69,0,0,1,14.53,1.78,55.27,55.27,0,0,1,17.27,7.49,45.68,45.68,0,0,1,12.78,12.48l-53.09,38.7a24.91,24.91,0,0,0,10.9.29,31.43,31.43,0,0,0,10.6-4.26A49.33,49.33,0,0,0,422,332.28Zm-.57,4.21q-.93,3.73-7.41,7a51,51,0,0,1-14.91,4.7,36.06,36.06,0,0,1-14.47-.11,13.84,13.84,0,0,1-3.28-1.13l57.5-42.12a63.77,63.77,0,0,0-12.79-9.59,58.92,58.92,0,0,0-15.3-6.17A49.79,49.79,0,0,0,392.06,288a43.81,43.81,0,0,0-18.22,7,37,37,0,0,0-8.27,7.61,61.24,61.24,0,0,0-7.25,11.19,60.07,60.07,0,0,0-4.86,12.89q-3.56,14.32,2.22,23.6,7.12,11.19,23.31,15.21a71.06,71.06,0,0,0,20.56,1.9A69.94,69.94,0,0,0,419,364q8.57-2.94,11.83-7.12Zm-47.54,1.35q-1.85-1.8-2.14-7.18a37.9,37.9,0,0,1,1.16-11.2q2.72-11,9.39-15.49a16.61,16.61,0,0,1,7-2.62,21.62,21.62,0,0,1,8.6.47A25.17,25.17,0,0,1,411,310.06Zm31.76-28.07a16.75,16.75,0,0,0-7-3.72,19.93,19.93,0,0,0-8.2-.29,12.7,12.7,0,0,0-6.3,2.56,21.58,21.58,0,0,0-7.88,12,24,24,0,0,0-.72,5.13q-.07,2.52.16,7Z" transform="translate(-3.77 0)" fill="#2f5198" stroke-miterlimit="10" stroke-width="5" stroke="url(#Degradado_sin_nombre_7-7)"/><polygon points="407.81 254.55 423.53 250.81 449.15 244.94 462.9 241.74 485.54 246.37 495.63 261.34 502.62 279.1 506.81 301.46 503.77 319.06 498.4 338.78 484.75 354.83 458.65 365.07 436.18 365.07 428.81 344.97 457.31 336.64 470.54 329.96 479 312.01 480.09 294.92 477.63 279.64 473.27 268.46 454.19 269.28 449.27 271.34 453.09 312.01 451.82 331.35 457.31 349.73 432.9 349.19 426.9 318.92 425 283.19 422.27 276.92 417.63 282.64 411.63 274.18 407.81 254.55" fill="#feca0a"/><path d="M464.22,244.74s44.54,4.91,36.73,80.18l8.89-19.14-3-31.59-17.5-27.81Z" transform="translate(-3.77 0)" fill="#c7a00b"/><polygon points="444.63 266.01 442.45 274.18 447.36 348.94 452.46 340.36 447.46 266.01 444.63 266.01" fill="#c7a00b"/><path d="M503.19,256.74a93.31,93.31,0,0,1,5.59,13.85,91.78,91.78,0,0,1,3.28,14.28,97.81,97.81,0,0,1,1,14,84.78,84.78,0,0,1-3.31,23.78,70.36,70.36,0,0,1-9.51,20.4,52.31,52.31,0,0,1-15,14.63,45.78,45.78,0,0,1-19.48,6.91l-29.69,5.27-10-91.57q-.5,0-3.49,3.77t-3.49,3.77q-1.57-1.07-2.74-6.05t-3.35-15.52q-2.17-10.54-3.24-12.82,16.45-5.34,31-8.65a122.14,122.14,0,0,1,27.06-3.31Q494.79,239.51,503.19,256.74Zm-5.27.57A31.73,31.73,0,0,0,485.21,247a42.74,42.74,0,0,0-17.34-3.28,87.34,87.34,0,0,0-11,.78q-6.13.78-12,2.1t-12.14,3q-6.27,1.64-17.09,4.84L420.3,280a16.39,16.39,0,0,1,3.92-3.88,7.18,7.18,0,0,1,3.85-1.6q1,0,1,.85l10,89.22,21.58-2.92A57.62,57.62,0,0,0,472.32,359a49.32,49.32,0,0,0,9.68-4.63,45.55,45.55,0,0,0,7.73-6,54.27,54.27,0,0,0,14-21.83,81.17,81.17,0,0,0,4.2-26.31,100.17,100.17,0,0,0-1.64-18.3,98.47,98.47,0,0,0-3.92-15.17A39.7,39.7,0,0,0,497.92,257.31Zm-21,7.55q5.62,1.71,8,11.25a91.25,91.25,0,0,1,2.38,22,96.72,96.72,0,0,1-1.07,15.81,30.3,30.3,0,0,1-4.2,10.65,36.34,36.34,0,0,1-9.72,10.22,38.61,38.61,0,0,1-15.2,6.55l-5.27-74.13q3.7-.92,6.87-1.64t6.23-1.14a39.69,39.69,0,0,1,5.41-.43A24.79,24.79,0,0,1,476.91,264.86Zm-1.71,4.7a30.47,30.47,0,0,0-9.4-2.06,15.83,15.83,0,0,0-9.33,3.2l3.56,64.8q12-5.2,16.06-10.29t4.88-8.44q.71-1.57,1.46-7.76a116,116,0,0,0,.75-13.81,69.51,69.51,0,0,0-1.82-17.05Q479.55,271.05,475.2,269.56Z" transform="translate(-3.77 0)" fill="#2f5198" stroke-miterlimit="10" stroke-width="5" stroke="url(#Degradado_sin_nombre_7-8)"/></g></svg>