<?xml version="1.0" encoding="utf-8"?>
<!-- Generator: Adobe Illustrator 21.1.0, SVG Export Plug-In . SVG Version: 6.00 Build 0)  -->
<svg version="1.1" xmlns="http://www.w3.org/2000/svg" xmlns:xlink="http://www.w3.org/1999/xlink" x="0px" y="0px"
	 viewBox="0 0 663.6 260.1" style="enable-background:new 0 0 663.6 260.1;" xml:space="preserve">
<style type="text/css">
	.st0{fill:none;stroke:#B275DA;stroke-linecap:round;stroke-miterlimit:10;stroke-dasharray:4,4;}
	.st1{fill:none;stroke:#757575;stroke-linecap:round;stroke-miterlimit:10;stroke-dasharray:4;}
	.st2{fill:#B275DA;}
	.st3{fill:#757575;}
</style>
<g id="Capa_2">
	<rect y="0.5" width="663.6" height="259.6"/>
</g>
<g id="Capa_1">
	<title>Recurso 14</title>
	<path class="st0" d="M32.4,148.8c16-17.4,71.7-72.2,137.1-63.1c0,0,48.2,3.4,77.6,57.4c13.7,25,27,50.3,44.1,74.5
		c20.5,29.2,53.5,49.6,106.5,39.8c32.3-5.9,60.2-19.2,83.6-34.2c22.5-14.4,37.3-35,64.5-46.2c23-9.5,56.4-10.5,77.6,1.2"/>
	<path class="st1" d="M18.7,259.6c22.3-47,47.7-93.5,77.8-136c22.4-31.7,48-59.7,86.6-70.7c35.6-10.1,64.4,3.6,83.6,34.2
		c33.6,53.6,39,141,121.9,137.7c53.5-2.1,78.5-50.2,121-73.7c37.6-20.8,77.1-13.8,105.2,18.1c15.1,16.8,48.3,68.8,48.3,68.8"/>
	<path class="st1" d="M33.5,120.6c29.4-30.2,74.4-59.8,124.2-62c59.2-2.6,90.4,39.2,110.1,77.8c16.3,32.1,32.4,72.1,72.9,89.8
		c35.8,15.7,77.4,8.6,111.8-5.7c36.7-15.2,62-41.5,97.4-57.5c23.6-10.6,50.4-16,77.4-14.2"/>
	<path class="st2" d="M85.7,142.5c-2.5,0.5-6-2.5-5.3-5.3s2.4-4.3,5.3-5s4.9,2.1,5.3,5S88.6,141.9,85.7,142.5z"/>
	<path class="st2" d="M451.6,203.3c-2.5,0.5-6-2.5-5.3-5.3s2.4-4.3,5.3-5s4.9,2.1,5.3,5S454.5,202.7,451.6,203.3z"/>
	<polygon class="st3" points="147.6,43.2 146.3,41.8 143.7,44.4 141.1,41.8 139.8,43.2 142.4,45.7 139.8,48.3 141.1,49.6 
		143.7,47.1 146.3,49.6 147.6,48.3 145,45.7 	"/>
	<polygon class="st3" points="315.3,102.7 314,101.4 311.4,103.9 308.8,101.4 307.5,102.7 310.1,105.3 307.5,107.8 308.8,109.1 
		311.4,106.6 314,109.1 315.3,107.8 312.7,105.3 	"/>
	<polygon class="st3" points="510.6,134.8 509.3,133.5 506.7,136 504.1,133.5 502.8,134.8 505.4,137.4 502.8,139.9 504.1,141.2 
		506.7,138.7 509.3,141.2 510.6,139.9 508,137.4 	"/>
	<polygon class="st3" points="167.1,165.4 165.8,164 163.2,166.6 160.7,164 159.4,165.4 161.9,167.9 159.4,170.5 160.7,171.8 
		163.2,169.3 165.8,171.8 167.1,170.5 164.6,167.9 	"/>
</g>
</svg>
