<?xml version="1.0" encoding="utf-8"?>
<!-- Generator: Adobe Illustrator 21.1.0, SVG Export Plug-In . SVG Version: 6.00 Build 0)  -->
<svg version="1.1" xmlns="http://www.w3.org/2000/svg" xmlns:xlink="http://www.w3.org/1999/xlink" x="0px" y="0px"
	 viewBox="0 0 1440 563" style="enable-background:new 0 0 1440 563;" xml:space="preserve">
<style type="text/css">
	.st0{fill:none;stroke:#FF5252;}
	.st1{fill:none;stroke:#B275DA;stroke-dasharray:4;}
	.st2{fill:none;stroke:#F9F9F9;stroke-dasharray:4;}
</style>
<g id="Capa_2">
	<rect x="-4.3" y="1" width="1445.1" height="565"/>
</g>
<g id="Capa_1">
	<title>Dotted lines / projects</title>
	<desc>Created with Sketch.</desc>
	<path id="Path" class="st0" d="M1440,250.4c0,0-0.7-1.6-2-4.4"/>
	<path id="Path_4_" class="st1" d="M1437.2,210.8c-25.9-31.7-115.5-130.2-206.6-105.7c0,0-67.8,11.7-99.3,118.1
		c-14.6,49.3-28.8,99.1-48.4,147.2c-23.6,58-66.4,100.6-143.6,87.7c-47-7.8-89.1-30.2-125.3-56.3c-34.7-25-59.6-62.8-100.3-81.4
		c-34.4-15.7-82.1-13.9-110,10.8c-8.2,4.9-31,15.6-104.5,132.8c0,0-61.5,81.6-174.7,95.6c0,0-203.5,32.5-334.4-125.2"/>
	<path id="Path_3_" class="st1" d="M1430,549.6c-57.9-85.3-122.5-169-196.6-244.5c-55.2-56.2-116.7-105.1-203.5-119.3
		c-79.9-13.1-140.8,17.8-177,78.9C789.1,372.1,793.9,538.5,611,546.4c-117.8,5-182.1-81.8-279.7-119.2
		c-86.5-33.1-171.9-13.1-227.8,52.1c-29.7,34.4-92.6,138.6-92.6,138.6"/>
	<path id="Path_2_" class="st2" d="M1440.5,172c-57.7-53.7-143-104-231.1-101.4c-105.3,3.1-152.4,87.2-179.8,163.7
		c-22.8,63.6-43.6,142-111.8,181.5c-60.2,34.8-135.1,26.9-198.8,4.3c-68-24.2-118.3-71.4-183.1-96.5
		c-57.4-24.7-131.4-27.8-177.3-5.7c0,0-97,33-207.1,212.8c0,0-61.6,111.6-140.3,117.7"/>
</g>
</svg>
